<svg xmlns="http://www.w3.org/2000/svg" viewBox="0 0 200 200">
  <rect x="10" y="10" width="180" height="180" rx="40" ry="40" fill="black"/>
  <g transform="translate(25, 25) scale(1)" fill="white">
    <path d="M111.6 129.7c8.3 3.9 17.3 6 26.5 5.9v-25.7c-2.2 0-4.3-.2-6.4-.6-5.2 8.2-12.1 15.1-20.1 20.4z"/>
    <path d="M106.4 90.6c-2.9-5.4-4.3-11.4-4.3-17.5H76c0 12.2 3.5 24.2 10.2 34.5-3.8 1.3-7.8 2-11.9 2-20 0-36.3-16.3-36.3-36.4 0-20.1 16.3-36.4 36.4-36.4s36.4 16.3 36.4 36.4c0 6.1-1.5 12.1-4.4 17.4zm-32-79.9c-34.5 0-62.5 27.9-62.5 62.5 0 34.5 27.9 62.5 62.5 62.5s62.5-27.9 62.5-62.5v-.1c-.1-34.4-28-62.4-62.5-62.4z"/>
  </g>
</svg>
